<svg version="1.0" xmlns="http://www.w3.org/2000/svg"
width="227.000000pt" height="227.000000pt" viewBox="0 0 227.000000 227.000000"
preserveAspectRatio="xMidYMid meet">
    <g transform="translate(0.000000,227.000000) scale(0.100000,-0.100000)"
    fill="#dc4b15" stroke="none">
        <path d="M1045 2133 c-141 -20 -328 -96 -444 -182 -77 -58 -193 -175 -240
        -244 -49 -72 -118 -224 -143 -313 -19 -68 -22 -105 -22 -254 0 -162 2 -182 28
        -265 48 -159 138 -316 245 -428 63 -67 193 -159 286 -203 392 -186 848 -105
        1147 204 155 160 237 324 273 543 19 118 19 190 0 304 -67 416 -370 734 -784
        826 -81 18 -259 24 -346 12z m556 -279 c32 -16 68 -81 69 -122 0 -37 -38 -100
        -71 -117 -62 -33 -150 -13 -185 40 -41 62 -21 159 40 196 38 23 106 25 147 3z
        m-302 -135 c41 -9 50 -15 56 -37 20 -81 111 -139 200 -128 l53 6 40 -53 c23
        -29 55 -83 72 -120 33 -69 60 -190 46 -204 -4 -4 -48 -8 -98 -8 l-91 0 -13 54
        c-56 215 -264 340 -477 286 -38 -9 -70 -15 -71 -14 -11 13 -86 153 -86 160 0
        12 59 38 125 55 63 16 179 17 244 3z m-385 -164 c25 -42 46 -81 46 -87 0 -6
        -21 -31 -46 -55 -86 -83 -130 -226 -105 -341 16 -77 48 -137 105 -199 l50 -55
        -24 -42 c-45 -78 -70 -116 -79 -116 -12 0 -94 69 -124 105 -38 47 -85 130
        -103 186 l-17 50 26 27 c57 59 57 165 1 231 -25 31 -26 31 -10 79 27 80 88
        171 155 233 35 33 67 59 71 59 4 0 28 -34 54 -75z m-337 -295 c100 -60 76
        -220 -38 -250 -36 -10 -45 -9 -101 12 -61 23 -90 135 -51 195 40 61 128 81
        190 43z m1193 -186 c0 -83 -82 -264 -147 -326 -26 -25 -33 -27 -63 -18 -71 20
        -156 -24 -191 -99 -31 -65 -62 -75 -209 -69 -94 5 -206 30 -229 53 -5 6 79
        175 87 175 2 0 29 -7 60 -16 84 -25 200 -16 276 22 107 52 195 166 212 274 l7
        40 98 0 99 0 0 -36z m-169 -407 c93 -62 87 -189 -12 -239 -86 -44 -199 25
        -199 122 0 50 45 116 90 133 35 13 89 6 121 -16z"/>
    </g>
</svg>
